<svg xmlns="http://www.w3.org/2000/svg" width="900" height="298" viewBox="0 0 900 298" role="img" aria-label="Стек технологий">
<title>Стек технологий</title>
<defs>
<clipPath id="f"><rect width="900" height="298" rx="14"/></clipPath>
<linearGradient id="beam" x1="0" y1="0" x2="1" y2="0"><stop offset="0" stop-color="#ff1a1a" stop-opacity="0"/><stop offset="0.5" stop-color="#ff8080" stop-opacity=".9"/><stop offset="1" stop-color="#ff1a1a" stop-opacity="0"/></linearGradient>
</defs>
<g clip-path="url(#f)">
<rect width="900" height="298" fill="#0d0d0d"/>
<rect width="900" height="2" fill="#8b0000" opacity=".45"/>
<rect class="sweep" x="0" y="0" width="180" height="2" fill="url(#beam)"/>
<rect x="140.0" y="26" width="1" height="252.0" fill="#8b0000" opacity=".45"/>
<text class="m" x="26.0" y="47.0" font-size="11" fill="#ff1a1a" letter-spacing="1.6" font-weight="700">ЯЗЫКИ</text>
<rect x="158.0" y="34.0" width="84.8" height="22" rx="11" fill="#181818" stroke="#8b0000" stroke-opacity=".6"/>
<text class="m" x="168.0" y="49.0" font-size="12.0" fill="#ff8080">Java 8-21</text>
<rect x="249.8" y="34.0" width="63.2" height="22" rx="11" fill="#181818" stroke="#8b0000" stroke-opacity=".6"/>
<text class="m" x="259.8" y="49.0" font-size="12.0" fill="#ff8080">Kotlin</text>
<rect x="320.0" y="34.0" width="41.6" height="22" rx="11" fill="#181818" stroke="#8b0000" stroke-opacity=".6"/>
<text class="m" x="330.0" y="49.0" font-size="12.0" fill="#ff8080">SQL</text>
<text class="m" x="26.0" y="89.0" font-size="11" fill="#ff1a1a" letter-spacing="1.6" font-weight="700">ФРЕЙМВОРКИ</text>
<rect x="158.0" y="76.0" width="99.2" height="22" rx="11" fill="#181818" stroke="#8b0000" stroke-opacity=".6"/>
<text class="m" x="168.0" y="91.0" font-size="12.0" fill="#ff8080">Spring Boot</text>
<rect x="264.2" y="76.0" width="128.0" height="22" rx="11" fill="#181818" stroke="#8b0000" stroke-opacity=".6"/>
<text class="m" x="274.2" y="91.0" font-size="12.0" fill="#ff8080">Spring Security</text>
<rect x="399.2" y="76.0" width="99.2" height="22" rx="11" fill="#181818" stroke="#8b0000" stroke-opacity=".6"/>
<text class="m" x="409.2" y="91.0" font-size="12.0" fill="#ff8080">Spring Data</text>
<rect x="505.4" y="76.0" width="84.8" height="22" rx="11" fill="#181818" stroke="#8b0000" stroke-opacity=".6"/>
<text class="m" x="515.4" y="91.0" font-size="12.0" fill="#ff8080">Hibernate</text>
<text class="m" x="26.0" y="131.0" font-size="11" fill="#ff1a1a" letter-spacing="1.6" font-weight="700">ДАННЫЕ</text>
<rect x="158.0" y="118.0" width="92.0" height="22" rx="11" fill="#181818" stroke="#8b0000" stroke-opacity=".6"/>
<text class="m" x="168.0" y="133.0" font-size="12.0" fill="#ff8080">PostgreSQL</text>
<rect x="257.0" y="118.0" width="63.2" height="22" rx="11" fill="#181818" stroke="#8b0000" stroke-opacity=".6"/>
<text class="m" x="267.0" y="133.0" font-size="12.0" fill="#ff8080">Oracle</text>
<rect x="327.2" y="118.0" width="56.0" height="22" rx="11" fill="#181818" stroke="#8b0000" stroke-opacity=".6"/>
<text class="m" x="337.2" y="133.0" font-size="12.0" fill="#ff8080">Redis</text>
<rect x="390.2" y="118.0" width="84.8" height="22" rx="11" fill="#181818" stroke="#8b0000" stroke-opacity=".6"/>
<text class="m" x="400.2" y="133.0" font-size="12.0" fill="#ff8080">Liquibase</text>
<text class="m" x="26.0" y="173.0" font-size="11" fill="#ff1a1a" letter-spacing="1.6" font-weight="700">ОБМЕН</text>
<rect x="158.0" y="160.0" width="106.4" height="22" rx="11" fill="#181818" stroke="#8b0000" stroke-opacity=".6"/>
<text class="m" x="168.0" y="175.0" font-size="12.0" fill="#ff8080">Apache Kafka</text>
<rect x="271.4" y="160.0" width="135.2" height="22" rx="11" fill="#181818" stroke="#8b0000" stroke-opacity=".6"/>
<text class="m" x="281.4" y="175.0" font-size="12.0" fill="#ff8080">ActiveMQ Artemis</text>
<rect x="413.6" y="160.0" width="63.2" height="22" rx="11" fill="#181818" stroke="#8b0000" stroke-opacity=".6"/>
<text class="m" x="423.6" y="175.0" font-size="12.0" fill="#ff8080">IBM MQ</text>
<rect x="483.8" y="160.0" width="48.8" height="22" rx="11" fill="#181818" stroke="#8b0000" stroke-opacity=".6"/>
<text class="m" x="493.8" y="175.0" font-size="12.0" fill="#ff8080">REST</text>
<rect x="539.6" y="160.0" width="70.4" height="22" rx="11" fill="#181818" stroke="#8b0000" stroke-opacity=".6"/>
<text class="m" x="549.6" y="175.0" font-size="12.0" fill="#ff8080">Swagger</text>
<text class="m" x="26.0" y="215.0" font-size="11" fill="#ff1a1a" letter-spacing="1.6" font-weight="700">ИНФРА</text>
<rect x="158.0" y="202.0" width="63.2" height="22" rx="11" fill="#181818" stroke="#8b0000" stroke-opacity=".6"/>
<text class="m" x="168.0" y="217.0" font-size="12.0" fill="#ff8080">Docker</text>
<rect x="228.2" y="202.0" width="56.0" height="22" rx="11" fill="#181818" stroke="#8b0000" stroke-opacity=".6"/>
<text class="m" x="238.2" y="217.0" font-size="12.0" fill="#ff8080">Maven</text>
<rect x="291.2" y="202.0" width="41.6" height="22" rx="11" fill="#181818" stroke="#8b0000" stroke-opacity=".6"/>
<text class="m" x="301.2" y="217.0" font-size="12.0" fill="#ff8080">Git</text>
<rect x="339.8" y="202.0" width="77.6" height="22" rx="11" fill="#181818" stroke="#8b0000" stroke-opacity=".6"/>
<text class="m" x="349.8" y="217.0" font-size="12.0" fill="#ff8080">TeamCity</text>
<rect x="424.4" y="202.0" width="128.0" height="22" rx="11" fill="#181818" stroke="#8b0000" stroke-opacity=".6"/>
<text class="m" x="434.4" y="217.0" font-size="12.0" fill="#ff8080">HashiCorp Vault</text>
<rect x="559.4" y="202.0" width="92.0" height="22" rx="11" fill="#181818" stroke="#8b0000" stroke-opacity=".6"/>
<text class="m" x="569.4" y="217.0" font-size="12.0" fill="#ff8080">Prometheus</text>
<text class="m" x="26.0" y="257.0" font-size="11" fill="#ff1a1a" letter-spacing="1.6" font-weight="700">ТЕСТЫ</text>
<rect x="158.0" y="244.0" width="70.4" height="22" rx="11" fill="#181818" stroke="#8b0000" stroke-opacity=".6"/>
<text class="m" x="168.0" y="259.0" font-size="12.0" fill="#ff8080">JUnit 5</text>
<rect x="235.4" y="244.0" width="70.4" height="22" rx="11" fill="#181818" stroke="#8b0000" stroke-opacity=".6"/>
<text class="m" x="245.4" y="259.0" font-size="12.0" fill="#ff8080">Mockito</text>
<rect x="312.8" y="244.0" width="120.8" height="22" rx="11" fill="#181818" stroke="#8b0000" stroke-opacity=".6"/>
<text class="m" x="322.8" y="259.0" font-size="12.0" fill="#ff8080">Testcontainers</text>
</g>
<rect x="1" y="1" width="898" height="296" rx="14" fill="none" stroke="#ff1a1a" stroke-width="1.5" stroke-opacity=".45"/>
<style>
@keyframes sweep{0%{transform:translateX(-180px)}100%{transform:translateX(900px)}}
.sweep{animation:sweep 6s cubic-bezier(.4,0,.6,1) infinite}
.m{font-family:"JetBrains Mono","Fira Code",ui-monospace,SFMono-Regular,Menlo,Consolas,monospace}
</style>
</svg>
